<?xml version="1.0" encoding="UTF-8" standalone="no"?>
<!DOCTYPE svg PUBLIC "-//W3C//DTD SVG 1.1//EN" "http://www.w3.org/Graphics/SVG/1.1/DTD/svg11.dtd">
<svg width="100%" height="100%" viewBox="0 0 905 905" version="1.1" xmlns="http://www.w3.org/2000/svg" xmlns:xlink="http://www.w3.org/1999/xlink" xml:space="preserve" xmlns:serif="http://www.serif.com/" style="fill-rule:evenodd;clip-rule:evenodd;stroke-linejoin:round;stroke-miterlimit:2;">
    <g transform="matrix(1,0,0,1,-47.7,-85.3)">
        <path d="M763.9,575.4L763.9,500C763.9,489.8 760.2,481 752.7,473.5C745.2,466 736.4,462.3 726.2,462.3L575.4,462.3L575.4,311.5C575.4,301.3 571.7,292.5 564.2,285C556.7,277.5 547.9,273.8 537.7,273.8L462.3,273.8C452.1,273.8 443.3,277.5 435.8,285C428.3,292.5 424.6,301.3 424.6,311.5L424.6,462.3L273.9,462.3C263.7,462.3 254.9,466 247.4,473.5C239.9,481 236.2,489.8 236.2,500L236.2,575.4C236.2,585.6 239.9,594.4 247.4,601.9C254.9,609.4 263.7,613.1 273.9,613.1L424.7,613.1L424.7,763.9C424.7,774.1 428.4,782.9 435.9,790.4C443.4,797.9 452.2,801.6 462.4,801.6L537.8,801.6C548,801.6 556.8,797.9 564.3,790.4C571.8,782.9 575.5,774.1 575.5,763.9L575.5,613.1L726.3,613.1C736.5,613.1 745.3,609.4 752.8,601.9C760.1,594.4 763.8,585.6 763.9,575.4ZM952.3,537.7C952.3,619.8 932.1,695.4 891.6,764.7C851.2,834 796.3,888.9 727,929.3C657.7,969.7 582,990 500,990C417.9,990 342.3,969.8 273,929.3C203.7,888.8 148.8,834 108.4,764.7C68,695.4 47.7,619.7 47.7,537.7C47.7,455.6 67.9,379.9 108.4,310.7C148.8,241.4 203.7,186.5 273,146C342.3,105.5 418,85.3 500,85.3C582.1,85.3 657.7,105.5 727,146C796.3,186.4 851.2,241.3 891.6,310.6C932.1,380 952.3,455.6 952.3,537.7Z" style="fill:rgb(255,126,125);fill-rule:nonzero;"/>
    </g>
</svg>
